<svg id="visual" viewBox="0 0 900 600" width="900" height="600" xmlns="http://www.w3.org/2000/svg" xmlns:xlink="http://www.w3.org/1999/xlink" version="1.1"><defs><linearGradient id="grad1_0" x1="33.3%" y1="0%" x2="100%" y2="100%"></linearGradient></defs><defs><linearGradient id="grad2_0" x1="0%" y1="0%" x2="66.7%" y2="100%"></linearGradient></defs><g transform="translate(900, 0)"><path d="M0 270.4C-31.6 259.3 -63.3 248.1 -98.3 237.4C-133.4 226.7 -171.9 216.4 -191.2 191.2C-210.6 166 -210.8 125.8 -220.8 91.5C-230.8 57.1 -250.6 28.6 -270.4 0L0 0Z" fill="#fad946"></path></g><g transform="translate(0, 600)"><path d="M0 -270.4C29.9 -252.2 59.7 -234.1 92.2 -222.7C124.8 -211.2 160 -206.6 188.1 -188.1C216.2 -169.6 237.3 -137.1 249.8 -103.5C262.4 -69.8 266.4 -34.9 270.4 0L0 0Z" fill="#fad946"></path></g></svg>