<svg id="visual" viewBox="0 0 600 900" width="600" height="900" xmlns="http://www.w3.org/2000/svg" xmlns:xlink="http://www.w3.org/1999/xlink" version="1.1"><defs><linearGradient id="grad1_0" x1="0%" y1="0%" x2="100%" y2="100%"></linearGradient></defs><defs><linearGradient id="grad2_0" x1="0%" y1="0%" x2="100%" y2="100%"></linearGradient></defs><g transform="translate(600, 0)"><path d="M0 270.4C-36.1 267.2 -72.2 264 -103.5 249.8C-134.8 235.7 -161.2 210.7 -184.6 184.6C-207.9 158.4 -228.3 131.2 -242.1 100.3C-255.9 69.3 -263.1 34.7 -270.4 0L0 0Z" fill="#fad946"></path></g><g transform="translate(0, 900)"><path d="M0 -270.4C23.9 -240.5 47.8 -210.6 83.8 -202.3C119.8 -194.1 168 -207.6 191.2 -191.2C214.4 -174.9 212.7 -128.7 221.7 -91.8C230.8 -55 250.6 -27.5 270.4 0L0 0Z" fill="#fad946"></path></g></svg>