<svg id="visual" viewBox="0 0 900 600" width="900" height="600" xmlns="http://www.w3.org/2000/svg" xmlns:xlink="http://www.w3.org/1999/xlink" version="1.1"><path d="M0 387L21.5 400.7C43 414.3 86 441.7 128.8 443.5C171.7 445.3 214.3 421.7 257.2 426.8C300 432 343 466 385.8 468.2C428.7 470.3 471.3 440.7 514.2 436C557 431.3 600 451.7 642.8 469.7C685.7 487.7 728.3 503.3 771.2 501.3C814 499.3 857 479.7 878.5 469.8L900 460L900 601L878.5 601C857 601 814 601 771.2 601C728.3 601 685.7 601 642.8 601C600 601 557 601 514.2 601C471.3 601 428.7 601 385.8 601C343 601 300 601 257.2 601C214.3 601 171.7 601 128.8 601C86 601 43 601 21.5 601L0 601Z" fill="#ffffff" stroke-linecap="round" stroke-linejoin="miter"></path></svg>