<svg id="visual" viewBox="0 0 900 600" width="900" height="600" xmlns="http://www.w3.org/2000/svg" xmlns:xlink="http://www.w3.org/1999/xlink" version="1.1"><path d="M0 423L18.8 431.7C37.7 440.3 75.3 457.7 112.8 476.5C150.3 495.3 187.7 515.7 225.2 518.5C262.7 521.3 300.3 506.7 337.8 491.3C375.3 476 412.7 460 450.2 453.8C487.7 447.7 525.3 451.3 562.8 464.7C600.3 478 637.7 501 675.2 500C712.7 499 750.3 474 787.8 470.8C825.3 467.7 862.7 486.3 881.3 495.7L900 505L900 601L881.3 601C862.7 601 825.3 601 787.8 601C750.3 601 712.7 601 675.2 601C637.7 601 600.3 601 562.8 601C525.3 601 487.7 601 450.2 601C412.7 601 375.3 601 337.8 601C300.3 601 262.7 601 225.2 601C187.7 601 150.3 601 112.8 601C75.3 601 37.7 601 18.8 601L0 601Z" fill="#ffffff" stroke-linecap="round" stroke-linejoin="miter"></path></svg>