<svg id="visual" viewBox="0 0 900 600" width="900" height="600" xmlns="http://www.w3.org/2000/svg" xmlns:xlink="http://www.w3.org/1999/xlink" version="1.1"><defs><linearGradient id="grad1_0" x1="33.3%" y1="100%" x2="100%" y2="0%"></linearGradient></defs><defs><linearGradient id="grad2_0" x1="0%" y1="100%" x2="66.7%" y2="0%"></linearGradient></defs><g transform="translate(900, 600)"><path d="M-270.4 0C-259.4 -31.8 -248.3 -63.6 -237.4 -98.3C-226.6 -133.1 -216 -170.7 -191.2 -191.2C-166.5 -211.7 -127.6 -215.1 -93.4 -225.4C-59.2 -235.8 -29.6 -253.1 0 -270.4L0 0Z" fill="#fad946"></path></g><g transform="translate(0, 0)"><path d="M270.4 0C269.7 38.8 269 77.5 249.8 103.5C230.7 129.4 193 142.6 167.6 167.6C142.1 192.6 128.8 229.4 102.9 248.5C77 267.6 38.5 269 0 270.4L0 0Z" fill="#fad946"></path></g></svg>